<svg width="46" height="46" viewBox="0 0 46 46" fill="none" xmlns="http://www.w3.org/2000/svg">
<path id="Subtract" fill-rule="evenodd" clip-rule="evenodd" d="M9.70053 5.18266C5.07362 8.41657 1.87653 13.4 0.79871 18.8619C0.708528 19.3181 0.636285 19.7907 0.581982 20.2797C0.385618 22.0345 0.374467 23.7374 0.548528 25.3885C0.913619 28.8617 2.1478 32.2683 4.13544 35.1963C5.51435 37.2273 7.06416 38.9295 8.97834 40.3982C11.8884 42.6305 15.1357 44.1013 18.7202 44.8106C23.5209 45.7613 28.6511 45.0191 33.0213 42.8555C35.685 41.5368 37.9728 39.7954 39.8845 37.6314C42.0256 35.2077 43.6038 32.3858 44.5202 29.3044C44.7379 28.5727 44.8809 28.0436 44.9492 27.7169C45.9383 22.9952 45.4765 18.4572 43.5638 14.1028C42.5202 11.7271 40.9682 9.53776 39.1303 7.6894C33.9311 2.46027 26.1973 -0.0436111 18.8649 1.33334C15.532 1.95854 12.4773 3.24164 9.70053 5.18266ZM41.7556 14.9647L41.7682 14.9926C41.9383 15.3694 42.0928 15.752 42.2314 16.1403L42.2322 16.1425C42.233 16.1456 42.2331 16.1489 42.2326 16.152C42.4499 16.927 42.8604 18.4037 42.9343 18.7158C42.9364 18.7211 42.938 18.7268 42.9391 18.733L42.9417 18.7481C42.9431 18.7549 42.9442 18.7605 42.9449 18.7647C42.9452 18.7663 42.9453 18.7678 42.9453 18.7692L43.0511 19.3806C43.0521 19.3864 43.0517 19.3923 43.05 19.3979C43.0483 19.4036 43.0453 19.4087 43.0413 19.4131C43.0394 19.4151 43.0374 19.4169 43.0351 19.4184C43.0325 19.4203 43.0296 19.4218 43.0266 19.423C43.021 19.4252 43.0149 19.4261 43.0089 19.4258C42.9182 19.4195 42.7939 19.4045 42.6358 19.3806C41.1623 19.1604 39.6717 18.7638 38.1638 18.1907C36.5265 17.5683 35.1951 17.0389 34.1696 16.6024C32.9522 16.0844 31.6416 15.7455 30.3085 15.7649C29.1049 15.7828 27.7122 16.1524 26.7296 16.9606C26.7273 16.9624 26.7245 16.9636 26.7215 16.9641C26.7186 16.9646 26.7156 16.9644 26.7128 16.9635C26.7112 16.9629 26.7098 16.9622 26.7085 16.9613C26.7077 16.9607 26.707 16.9601 26.7063 16.9594C26.7061 16.9592 26.7059 16.959 26.7057 16.9588C26.7053 16.9583 26.7049 16.9578 26.7045 16.9573C26.7043 16.957 26.7041 16.9566 26.7038 16.9563C26.7029 16.9547 26.7023 16.953 26.702 16.9513C26.4431 15.815 25.846 14.9548 24.9107 14.3707C22.7718 13.0346 20.2256 14.1121 19.438 16.3846C19.4074 16.473 19.3734 16.5988 19.3388 16.7266L19.3388 16.7267L19.3387 16.7267L19.3387 16.727C19.3189 16.7999 19.299 16.8736 19.2794 16.9412C19.2712 16.9694 19.2552 16.9747 19.2314 16.957C17.3093 15.5062 14.5958 15.4912 12.4409 16.3846C11.7785 16.6589 11.1119 16.9241 10.4451 17.1893C9.91559 17.4 9.38597 17.6107 8.85835 17.826C8.33398 18.0402 7.82053 18.2064 7.2918 18.3755C6.90877 18.5121 6.51847 18.6473 6.12089 18.781C5.04598 19.1421 3.94174 19.3661 2.80816 19.453C2.80229 19.4535 2.79638 19.4526 2.79092 19.4504C2.78546 19.4482 2.78061 19.4447 2.77677 19.4402C2.77293 19.4357 2.77021 19.4304 2.76884 19.4246C2.76747 19.4189 2.76749 19.4129 2.76889 19.4071L2.92453 18.7659C2.93035 18.7406 2.94586 18.7241 2.97107 18.7165C4.3975 18.2819 5.62901 17.608 6.66562 16.6948C7.81035 15.6861 9.05786 14.4877 10.4082 13.0998C11.1856 12.301 11.9151 11.6082 12.6911 10.8832C14.486 9.20534 17.1034 8.02612 19.5158 9.22827C19.8368 9.38803 20.1791 9.65034 20.5017 9.89761L20.5017 9.89762C20.7318 10.0739 20.9518 10.2425 21.1471 10.3609C22.1973 10.9966 23.2806 11.0499 24.3973 10.5207C24.6261 10.4123 25.0183 10.1434 25.574 9.714C26.63 8.89824 27.8324 8.58612 29.1813 8.77764C31.4227 9.09573 32.9943 10.5465 34.5427 12.119C35.3611 12.951 36.1813 13.779 37.0031 14.6028C37.9611 15.592 38.9214 16.4431 39.8838 17.1561C40.3678 17.5147 40.8893 17.8292 41.4482 18.0999C41.3363 17.3594 41.0166 16.0416 40.77 15.2856C40.0333 14.7231 39.362 14.0565 38.72 13.419L38.6445 13.3441C37.4038 12.1128 36.1597 10.8849 34.9122 9.66027C33.8198 8.58851 32.5616 7.69299 31.1238 7.19651C28.9296 6.43925 26.3078 6.55603 24.4431 8.00606L24.3519 8.07715C23.6894 8.59457 23.1064 9.04989 22.2314 8.64152C22.1126 8.58612 21.8952 8.42899 21.5791 8.17012C19.6962 6.62767 17.0773 6.40487 14.8307 7.20296C13.2547 7.76248 12.0249 8.6666 10.8263 9.81573C10.1897 10.4261 9.5621 11.0458 8.94344 11.6748C7.87362 12.7624 6.76598 13.8119 5.64816 14.8514C5.0581 15.3993 4.39895 15.8535 3.67071 16.2141C3.66657 16.2162 3.66187 16.217 3.65723 16.2165C3.65259 16.216 3.64822 16.2141 3.64469 16.2111C3.64116 16.2081 3.63863 16.2041 3.63743 16.1996C3.63624 16.1952 3.63643 16.1905 3.63798 16.1861C4.04138 15.0456 4.5621 13.9542 5.20016 12.9121C6.81423 10.2766 8.94392 8.0863 11.5893 6.3411C16.2023 3.29776 21.8118 2.26325 27.2169 3.39734C28.9391 3.75913 30.6482 4.39961 32.2285 5.1583C35.9027 6.92212 38.9238 9.81215 40.9391 13.3033C41.2486 13.839 41.4777 14.3476 41.7556 14.9647L41.7556 14.9647ZM21.3602 17.3825C21.3893 16.6384 21.7614 16.1317 22.4765 15.8623C23.6111 15.5392 24.6162 16.4104 24.8693 17.4578C24.9168 17.656 24.9405 18.0369 24.9405 18.6004C24.94 21.4723 24.9342 24.3122 24.9231 27.1201L24.9078 29.9901C24.9078 29.9952 24.9075 30.0004 24.9069 30.0055L24.9799 32.3541L25.0106 32.3386C25.6096 32.0341 26.2033 31.7322 26.8358 31.6385C27.9274 31.4759 29.1856 31.7073 30.0133 32.4603C30.069 32.5114 30.3386 32.7998 30.822 33.3257C31.1963 33.7336 31.559 34.1503 31.91 34.5758C32.5621 35.3042 33.1032 35.9889 33.5333 36.6298C34.1965 37.6178 34.0067 38.931 33.4067 39.9003C33.4034 39.9058 33.3987 39.9103 33.3931 39.9133C33.3874 39.9164 33.381 39.9179 33.3744 39.9176C33.3679 39.9174 33.3615 39.9155 33.356 39.9121C33.3504 39.9086 33.3458 39.9038 33.3427 39.8981L32.4343 38.216C31.8205 37.2904 31.1296 36.5133 30.3616 35.8847C29.782 35.4105 29.0402 35.0745 28.2569 34.9706C27.4419 34.8627 26.6225 34.8323 25.7987 34.8796C25.518 34.8954 25.0583 35.0472 24.75 35.1891C23.6174 35.7087 22.4998 36.269 21.3973 36.8698C20.9817 37.059 20.6033 37.2521 20.262 37.4494C19.7071 37.7704 19.3849 38.3585 19.7558 38.9489C19.9895 39.3204 20.3102 39.49 20.718 39.4575C20.8712 39.4451 21.0617 39.3778 21.2896 39.2555C22.4799 38.6155 23.6838 38.003 24.9013 37.4179C25.4394 37.16 25.8622 36.9993 26.1696 36.9357C27.3703 36.69 28.7231 36.968 29.5609 37.9222C29.6685 37.9786 29.7531 38.0409 29.8147 38.1092C30.5527 38.9255 31.1587 39.8852 31.6329 40.9885C31.6843 41.1079 31.7185 41.2072 31.7354 41.2865C31.7384 41.3 31.7364 41.314 31.7299 41.3262C31.7234 41.3384 31.7127 41.3479 31.6998 41.3532L30.0533 42.0108C30.0394 42.0164 30.0239 42.0166 30.0098 42.0114C29.9957 42.0062 29.984 41.9961 29.9769 41.9829C29.4336 40.9599 28.2765 40.1911 27.0613 40.2406C25.8782 40.3423 24.9929 40.8803 24.4053 41.8547C24.188 42.3017 24.0445 42.7325 23.9747 43.1471C23.9703 43.1733 23.9546 43.1865 23.9274 43.1865L22.6031 43.2065C22.095 43.2242 21.5485 43.1982 20.9638 43.1284C19.5471 43.0181 18.3253 42.7065 17.0198 42.3561C17.0045 42.352 16.9914 42.3425 16.983 42.3295C16.9746 42.3164 16.9717 42.3009 16.9747 42.2859C17.3878 40.1904 17.8002 38.4044 18.0903 37.2825C18.1697 36.9755 18.2782 36.6916 18.4159 36.4308L19.7193 32.7069C20.591 27.6437 21.158 22.6227 21.3602 17.3825ZM26.942 22.8266L26.9267 20.759C26.8845 20.3034 26.8453 19.7238 27.0925 19.3333C28.0038 17.8991 30.2729 17.591 31.7638 17.9557C32.2865 18.0837 32.9274 18.2996 33.6867 18.6033C34.3694 18.8765 35.0513 19.1516 35.7325 19.4286C37.2787 20.0581 38.2654 20.4385 38.6925 20.5699C39.4673 20.8073 40.2474 21.0205 41.0329 21.2096C41.0376 21.2107 41.0419 21.2131 41.0451 21.2167C41.046 21.2177 41.0468 21.2187 41.0475 21.2199C41.0482 21.2209 41.0488 21.222 41.0492 21.2231C41.0501 21.2251 41.0507 21.2272 41.0509 21.2294C41.0515 21.2341 41.0505 21.2388 41.0482 21.243C41.0459 21.2472 41.0423 21.2505 41.038 21.2526C40.4431 21.5597 39.8836 21.9244 39.3594 22.3466C38.6583 22.8724 38.0242 23.3489 37.2896 23.955C36.5468 24.5673 35.7446 25.1798 34.8831 25.7926C32.5653 27.4403 29.854 28.3917 26.9987 28.4347C26.974 28.4352 26.9616 28.4233 26.9616 28.3989L26.942 22.8266ZM8.7638 24.018L6.4758 22.2757L5.89608 21.9047C5.31829 22.2428 3.87603 22.5131 2.95558 22.6732C3.60663 22.9161 4.21567 23.2364 4.78271 23.634C5.75944 24.3189 7.04744 25.2753 8.17107 26.1565C11.0743 28.4326 14.2023 30.1104 17.9594 30.465C17.989 30.4679 18.0019 30.4837 17.998 30.5123C17.7953 31.9743 17.5291 33.4253 17.1994 34.8653C17.1937 34.8911 17.1809 34.9148 17.1623 34.9341C17.1623 34.9341 16.3334 36.3333 16.0925 36.887C15.7565 38.4674 15.3968 40.0376 15.0133 41.5975C14.9992 41.6543 14.9655 41.6703 14.9122 41.6455C14.4409 41.4301 13.9711 41.2015 13.5027 40.9598C9.22344 38.7497 5.7718 35.1769 3.96816 30.7502C2.90489 28.141 2.39798 25.4222 2.44744 22.5938C2.44756 22.5842 2.44976 22.5747 2.45388 22.566C2.47042 22.2357 2.55549 21.7462 2.60453 21.5582C3.05164 21.5582 4.20937 21.3329 4.84419 21.1967C4.84632 21.192 4.85887 21.189 4.8705 21.1862C4.87927 21.184 4.88752 21.182 4.89035 21.1796C4.91542 21.1767 4.94035 21.1736 4.96516 21.1704C4.96931 21.1695 4.97342 21.1686 4.97749 21.1677L4.97882 21.1686C5.23472 21.1348 5.47842 21.0823 5.73616 21.0148C7.15289 20.6475 8.3718 20.253 9.39289 19.8313C10.5221 19.3646 11.6528 18.9025 12.7849 18.445C13.9187 17.9865 14.8765 17.7364 16.0162 17.8489C17.1267 17.9593 18.4111 18.4794 18.9696 19.4759C19.1651 19.8234 19.1227 20.4241 19.0943 20.8268L19.0933 20.8414L18.9893 22.8244C18.9931 22.8937 18.9917 22.9634 18.9849 23.0336C18.8084 24.8166 18.5924 26.5909 18.3369 28.3566C18.3351 28.3688 18.3288 28.3798 18.3192 28.3875C18.3096 28.3952 18.2975 28.399 18.2853 28.3982C16.6896 28.3086 15.2016 27.911 13.7413 27.2906C12.0373 26.5663 10.5442 25.496 9.12162 24.3354C9.01107 24.2451 8.8918 24.1393 8.7638 24.018ZM43.3987 22.588C43.4583 23.5896 43.4174 24.5983 43.2758 25.6142C42.8307 28.8041 41.7114 31.7255 39.918 34.3781C38.9303 35.8389 37.6816 37.1779 36.3638 38.3557C36.2033 38.499 36.0334 38.6353 35.854 38.7647C35.8481 38.7691 35.841 38.7716 35.8336 38.7719C35.8262 38.7722 35.8189 38.7703 35.8127 38.7664C35.8078 38.7633 35.8036 38.7591 35.8007 38.7541L35.7987 38.7501C35.7958 38.7434 35.795 38.736 35.7965 38.7289C35.9759 37.8019 35.8465 36.9245 35.4082 36.0968C35.3956 36.0734 35.3982 36.0517 35.4162 36.0316C36.0445 35.3195 36.3143 34.4708 36.2256 33.4855C36.0234 31.2338 33.4409 30.1878 31.4736 30.9852C31.4494 30.9947 31.4273 30.9914 31.4074 30.9751C31.0385 30.6695 30.6433 30.4025 30.222 30.1742C30.2203 30.1733 30.2197 30.1726 30.2201 30.1719C30.2204 30.1714 30.2213 30.171 30.2227 30.1706C32.7114 29.4718 34.9197 28.3769 36.8474 26.8858C37.2391 26.5827 37.6281 26.2757 38.0173 25.9685C39.1606 25.0659 40.3049 24.1626 41.5209 23.3582C42.0717 22.9928 42.6729 22.7187 43.3245 22.5357C43.3711 22.5228 43.3958 22.5403 43.3987 22.588ZM32.3479 32C34.1274 31.531 35.4686 32.5298 34.7333 34.6667C34.7236 34.6948 34.1468 34.1353 34.1274 34.1123L33.0467 32.8471C33.0407 32.8401 33.028 32.826 33.0101 32.8061C32.9975 32.7921 32.9822 32.7752 32.9648 32.756C32.7656 32.5363 32.2928 32.0145 32.3479 32ZM27.8925 42.6391L26.2409 42.9436C26.2355 42.9446 26.2299 42.9442 26.2247 42.9426C26.2195 42.941 26.2148 42.9381 26.211 42.9342C26.2086 42.9317 26.2066 42.9289 26.2051 42.9258C26.2043 42.9241 26.2036 42.9224 26.2032 42.9205C26.2018 42.9154 26.2017 42.9101 26.2031 42.9049C26.3616 42.2902 27.4918 42.2501 27.9042 42.599C27.9289 42.62 27.925 42.6334 27.8925 42.6391Z" fill="#FFFDF0"/>
</svg>
